<svg width="882" height="696" viewBox="0 0 882 696" fill="none" xmlns="http://www.w3.org/2000/svg">
<path d="M900 321.14V0H18C18 0 70.1973 53.8439 50.5038 128.6C30.8103 203.357 89.8907 356.956 154.134 377.869C218.376 398.781 181.284 471.134 240.364 554.063C299.636 636.993 324.492 575.457 356.039 593.004C369.232 600.215 374.777 641.56 416.458 633.147C446.859 626.897 477.26 610.311 488.158 615.84C499.056 621.368 505.557 693 505.557 693C505.557 693 569.035 671.607 582.419 649.973C595.803 628.339 670.37 562.236 669.032 465.365C668.649 433.155 685.475 399.503 764.249 427.146C843.023 454.548 900 414.887 900 321.14Z" fill="url(#paint0_linear_343_70)"/>
<path d="M397.412 88.4084L404.859 87.278L398.991 92.2517L400.12 99.7123L395.155 93.8343L387.708 94.7386L393.575 89.9909L392.447 82.3042L397.412 88.4084Z" fill="white"/>
<path d="M314.77 193.016L319.734 198.668L312.513 196.407L306.871 201.607L308.902 194.372L303.938 188.494L311.159 190.755L317.026 185.555L314.77 193.016Z" fill="white"/>
<path d="M784.906 40.5378L792.128 43.0247L784.681 44.6072L781.973 51.8417L780.393 44.3811L773.172 41.8943L780.619 40.3117L783.327 33.0771L784.906 40.5378Z" fill="white"/>
<path d="M668.353 113.954L675.574 116.44L668.127 118.023L665.419 125.258L664.065 117.797L656.844 115.084L664.291 113.501L666.773 106.267L668.353 113.954Z" fill="white"/>
<path d="M558.341 40.5378L565.562 43.0247L558.115 44.6072L555.407 51.8417L554.053 44.3811L546.832 41.8943L554.279 40.3117L556.761 33.0771L558.341 40.5378Z" fill="white"/>
<path d="M325.454 516.887L327.936 519.6L324.326 518.47L321.618 520.957L322.746 517.339L320.264 514.627L323.874 515.757L326.582 513.27L325.454 516.887Z" fill="white"/>
<path d="M327.034 458.333L330.644 457.655L327.936 460.141L328.613 463.759L326.131 461.046L322.521 461.724L325.228 459.237L324.551 455.62L327.034 458.333Z" fill="white"/>
<path d="M411.207 518.922L413.915 521.409L410.304 520.731L407.822 523.444L408.499 519.827L405.791 517.34L409.402 518.018L411.884 515.305L411.207 518.922Z" fill="white"/>
<path d="M746.773 208.289L751.738 214.167L744.517 211.906L738.875 216.88L740.906 209.645L735.941 203.993L743.163 206.028L749.03 201.054L746.773 208.289Z" fill="white"/>
<path d="M834.331 151.317L839.296 156.969L832.074 154.708L826.207 159.908L828.464 152.447L823.273 146.795L830.721 149.056L836.362 143.856L834.331 151.317Z" fill="white"/>
<path d="M149.098 22.2469L156.717 24.8659L148.622 26.5326L146.003 34.1516L144.336 26.2945L136.717 23.4373L144.574 21.7707L147.431 14.1516L149.098 22.2469Z" fill="white"/>
<path d="M836.153 218.518L826.908 234.62L824.96 233.497L833.031 219.44L832.937 219.386L827.511 219.733L828.648 217.751L834.205 217.396L836.153 218.518Z" fill="#E075AD"/>
<path d="M734.471 291.207C733.148 291.545 731.929 291.473 730.814 290.99C729.698 290.502 728.719 289.632 727.877 288.381C727.033 287.125 726.362 285.518 725.864 283.562C725.369 281.617 725.193 279.894 725.334 278.392C725.48 276.882 725.926 275.646 726.672 274.681C727.423 273.71 728.454 273.056 729.766 272.721C731.078 272.386 732.292 272.466 733.41 272.96C734.531 273.447 735.514 274.319 736.358 275.576C737.206 276.825 737.878 278.422 738.373 280.366C738.871 282.323 739.05 284.055 738.91 285.563C738.768 287.065 738.324 288.298 737.578 289.262C736.83 290.221 735.795 290.869 734.471 291.207ZM733.979 289.274C735.291 288.939 736.149 288.046 736.553 286.595C736.957 285.145 736.861 283.248 736.264 280.905C735.868 279.347 735.363 278.063 734.751 277.053C734.144 276.041 733.457 275.328 732.69 274.912C731.929 274.495 731.116 274.398 730.249 274.619C728.949 274.951 728.096 275.852 727.691 277.322C727.284 278.786 727.378 280.686 727.972 283.023C728.369 284.581 728.87 285.863 729.475 286.869C730.08 287.875 730.763 288.583 731.522 288.994C732.288 289.404 733.107 289.497 733.979 289.274Z" fill="#FCC947"/>
<defs>
<linearGradient id="paint0_linear_343_70" x1="570.5" y1="658.936" x2="227.096" y2="8.04762" gradientUnits="userSpaceOnUse">
<stop stop-color="#5D77FF"/>
<stop offset="1" stop-color="#6539C1"/>
</linearGradient>
</defs>
</svg>
