<svg width="40" height="48" viewBox="0 0 40 48" fill="none" xmlns="http://www.w3.org/2000/svg">
<path d="M19.3079 47.6008C5.46294 47.6008 -1.65756 27.6898 1.50744 21.6298C2.78394 19.1853 5.11295 21.4983 8.78944 18.5378C10.6139 17.0683 10.1734 14.5078 10.1764 12.5543C10.1784 11.3818 11.5534 10.5353 12.7374 10.7543C14.0594 10.9988 15.3919 11.8773 17.5279 11.6263C20.0479 11.3303 21.6609 9.52584 24.1539 9.99134C26.2234 10.3773 24.8324 15.2753 31.9744 16.4488C34.3779 16.8438 32.8659 20.7228 34.6494 22.8123C36.1474 24.5673 38.0824 23.3728 39.3829 25.0933C40.9304 27.1408 39.1589 29.4353 38.4929 33.7503C36.8189 44.5933 30.4824 47.6008 19.3079 47.6008Z" fill="#FF672E"/>
<path d="M4.96253 7.65222C3.16553 7.84122 1.05953 10.6277 0.506532 13.3537C-0.0464678 16.0797 1.65553 18.1772 3.26803 17.8647C4.88053 17.5522 7.71403 15.5167 8.17803 13.2402C8.86553 9.86722 7.05703 7.43222 4.96253 7.65222Z" fill="#14A76C"/>
<path d="M9.88631 6.4977C10.7158 8.7492 15.1278 8.6682 17.6388 8.2842C20.1498 7.9002 23.3908 6.5582 23.5773 4.4942C23.7638 2.4302 20.3268 0.260201 16.3748 0.921201C12.4228 1.5822 9.05681 4.2462 9.88631 6.4977Z" fill="#14A76C"/>
<path d="M34.1099 13.7667C32.3074 14.3647 30.9579 13.9132 28.2769 11.3652C25.5959 8.81725 25.8864 5.66475 27.4189 3.98875C28.9514 2.31275 32.2219 4.09875 33.7094 6.21875C35.1969 8.33875 35.9124 13.1687 34.1099 13.7667Z" fill="#14A76C"/>
<path d="M38.3393 22.1659C36.6713 22.0519 35.4633 20.9319 34.7978 19.3224C34.1323 17.7129 33.8898 15.6394 35.4923 14.6819C37.0948 13.7244 38.6963 16.3334 39.2373 18.0854C39.7783 19.8374 40.0073 22.2799 38.3393 22.1659Z" fill="#14A76C"/>
</svg>
