<svg width="128" height="114" viewBox="0 0 128 114" fill="none" xmlns="http://www.w3.org/2000/svg">
<path fill-rule="evenodd" clip-rule="evenodd" d="M33.2 45.8743L127.937 57.133L38.9167 58.2453L27.2062 73.6018L33.2 45.8743Z" fill="#BEB58E"/>
<path d="M27.2062 73.6018L44.6332 70.6163L38.9167 58.2453L27.2062 73.6018Z" fill="#716B44"/>
<path d="M22.6725 23.1985L123 56.0429L33.5295 45.4096L22.6725 23.1985Z" fill="#EEECDB" stroke="#BEB58E"/>
<path d="M124.98 57.6705L51.4425 84.2387L39.6924 58.7354L124.98 57.6705Z" fill="#EEECDB" stroke="#BEB58E"/>
<path d="M87.7863 57.6388C88.0008 63.7854 81.1185 70.0545 71.8688 71.6783C57.7045 74.1649 50.0417 66.5045 48.882 58.1146L87.7863 57.6388Z" fill="#FFD84E"/>
<path d="M56.2386 72.8493L51.8331 80.3669" stroke="#FFCD4E" stroke-width="2" stroke-linecap="round"/>
<path d="M48.0141 62.586L43.2616 63.4663" stroke="#FFCD4E" stroke-width="2" stroke-linecap="round"/>
<path d="M100.85 60.5683L91.8621 59.7935" stroke="#FFCD4E" stroke-width="2" stroke-linecap="round"/>
<path d="M73.3776 72.7343L73.8443 75.0705" stroke="#FFCD4E" stroke-width="2" stroke-linecap="round"/>
<path d="M87.1208 66.1206L90.6511 68.8754" stroke="#FFCD4E" stroke-width="2" stroke-linecap="round"/>
<path d="M45.6058 47.3495C50.0045 42.1316 57.6786 42.3941 65.0324 43.2769C70.9478 43.987 82.9864 47.7761 85.019 52.0355L45.6058 47.3495Z" fill="#FFD84E"/>
<path d="M47.0964 58.134C46.0344 56.3807 45.1232 50.7319 45.6058 47.3495L85.019 52.0355C85.7315 53.9158 85.9888 56.4425 85.7958 57.6533L47.0964 58.134Z" fill="#C5992A"/>
<path d="M48.6627 41.6763L42.0159 34.3333" stroke="#FFCD4E" stroke-width="2" stroke-linecap="round"/>
<path d="M87.9143 45.6525L83.7116 47.9048" stroke="#FFCD4E" stroke-width="2" stroke-linecap="round"/>
<path d="M75.2983 41.5132L74.4029 43.2881" stroke="#FFCD4E" stroke-width="2" stroke-linecap="round"/>
<path d="M61.4179 37.9025L61.7784 40.3319" stroke="#FFCD4E" stroke-width="2" stroke-linecap="round"/>
<path d="M33.5854 38.2147C34.3849 38.3419 33.8788 39.1667 33.0793 39.0395C32.3811 38.7473 32.786 38.0874 33.5854 38.2147Z" fill="#E0CAEF"/>
<path d="M48.6282 34.4545C48.9933 34.5126 48.7622 34.8894 48.397 34.8313C48.078 34.6978 48.263 34.3964 48.6282 34.4545Z" fill="#E0CAEF"/>
<path d="M48.1333 68.1934C48.9328 68.3206 48.4267 69.1455 47.6272 69.0183C46.929 68.7261 47.3339 68.0662 48.1333 68.1934Z" fill="#E0CAEF"/>
<path d="M40.2798 42.5427C40.5463 42.5851 40.5463 42.5851 40.2798 42.5427C41.0421 43.2072 39.406 43.4901 39.1767 42.9104C39.1767 42.9104 39.278 42.7454 39.0115 42.703C38.681 42.2883 40.2158 42.1704 40.2798 42.5427Z" fill="#E0CAEF"/>
<path d="M103.357 51.0251C103.623 51.0675 103.623 51.0675 103.357 51.0251C104.119 51.6896 102.483 51.9725 102.253 51.3928C102.253 51.3928 102.355 51.2278 102.088 51.1854C101.758 50.7707 103.293 50.6528 103.357 51.0251Z" fill="#E0CAEF"/>
<path d="M109.138 59.1109C109.397 59.0623 109.397 59.0623 109.138 59.1109C110.318 59.6931 109.171 60.7125 108.508 60.0331C108.508 60.0331 108.459 59.7743 108.201 59.8229C107.586 59.4024 108.782 58.6418 109.138 59.1109Z" fill="#E0CAEF"/>
<path d="M34.7883 30.4499C35.0548 30.4923 35.0548 30.4923 34.7883 30.4499C35.5506 31.1144 33.9144 31.3973 33.6851 30.8176C33.6851 30.8176 33.7864 30.6526 33.5199 30.6102C33.1894 30.1955 34.7242 30.0776 34.7883 30.4499Z" fill="#E0CAEF"/>
<path d="M99.0968 64.1901C99.8727 64.0444 100.067 65.0797 99.2913 65.2254C98.5155 65.3712 98.321 64.3359 99.0968 64.1901Z" fill="#E0CAEF"/>
<path d="M53.7686 35.7066C54.7377 35.5246 54.9807 36.8178 54.0115 36.9999C53.0423 37.1819 52.7994 35.8887 53.7686 35.7066Z" fill="#E0CAEF"/>
<path d="M60.7348 76.3512C61.5106 76.2055 61.7051 77.2408 60.9292 77.3866C60.1534 77.5323 59.9589 76.497 60.7348 76.3512Z" fill="#E0CAEF"/>
<path d="M90.7128 49.6815C91.5123 49.8087 91.1074 50.4685 90.3079 50.3413C89.5085 50.2141 89.9133 49.5542 90.7128 49.6815Z" fill="#E0CAEF"/>
</svg>
