<svg width="113" height="129" viewBox="0 0 113 129" fill="none" xmlns="http://www.w3.org/2000/svg">
<path fill-rule="evenodd" clip-rule="evenodd" d="M78.5859 40.02L0.701359 95.1191L79.4649 53.6197L97.0837 61.5275L78.5859 40.02Z" fill="#BEB58E"/>
<path d="M97.0837 61.5275L80.344 67.2192L79.4649 53.6197L97.0837 61.5275Z" fill="#716B44"/>
<path d="M77.0177 15.0689L4.5201 91.8053L78.0746 39.769L77.0177 15.0689Z" fill="#EEECDB" stroke="#BEB58E"/>
<path d="M3.55715 94.1802L80.86 82.4399L79.017 54.4205L3.55715 94.1802Z" fill="#EEECDB" stroke="#BEB58E"/>
<path d="M36.2281 76.4053C38.9725 81.9093 48.0121 84.1349 56.9158 81.1483C70.5501 76.5749 73.6291 66.1865 70.6449 58.2599L36.2281 76.4053Z" fill="#FFD84E"/>
<path d="M71.2105 74.7193L78.6692 79.2238" stroke="#FFCD4E" stroke-width="2" stroke-linecap="round"/>
<path d="M73.5411 61.7751L78.1377 60.2812" stroke="#FFCD4E" stroke-width="2" stroke-linecap="round"/>
<path d="M26.1452 85.2133L33.6743 80.2436" stroke="#FFCD4E" stroke-width="2" stroke-linecap="round"/>
<path d="M56.0937 82.7964L56.7983 85.0721" stroke="#FFCD4E" stroke-width="2" stroke-linecap="round"/>
<path d="M40.8601 83.5416L39.0721 87.6472" stroke="#FFCD4E" stroke-width="2" stroke-linecap="round"/>
<path d="M68.3875 47.236C62.032 44.7494 55.4132 48.6418 49.3717 52.9266C44.5119 56.3732 35.7402 65.4475 35.9864 70.1606L68.3875 47.236Z" fill="#FFD84E"/>
<path d="M72.2234 57.4249C72.3201 55.3774 70.4255 49.9783 68.3875 47.236L35.9864 70.1606C36.2574 72.153 37.237 74.4962 37.9844 75.4682L72.2234 57.4249Z" fill="#C5992A"/>
<path d="M62.9939 43.709L65.3314 34.0843" stroke="#FFCD4E" stroke-width="2" stroke-linecap="round"/>
<path d="M30.3962 65.9326L35.1643 65.9067" stroke="#FFCD4E" stroke-width="2" stroke-linecap="round"/>
<path d="M39.5083 56.2751L41.1421 57.4077" stroke="#FFCD4E" stroke-width="2" stroke-linecap="round"/>
<path d="M49.9838 46.4787L50.8262 48.7857" stroke="#FFCD4E" stroke-width="2" stroke-linecap="round"/>
<path d="M74.5923 33.4726C73.9505 33.9658 74.7888 34.4492 75.4307 33.956C75.9049 33.366 75.2342 32.9793 74.5923 33.4726Z" fill="#E0CAEF"/>
<path d="M59.5783 37.3457C59.285 37.571 59.668 37.7918 59.9612 37.5665C60.1778 37.297 59.8715 37.1203 59.5783 37.3457Z" fill="#E0CAEF"/>
<path d="M76.112 66.7599C75.4701 67.2532 76.3085 67.7366 76.9504 67.2433C77.4246 66.6534 76.7539 66.2667 76.112 66.7599Z" fill="#E0CAEF"/>
<path d="M70.7743 40.4704C70.5604 40.6348 70.5604 40.6348 70.7743 40.4704C70.4215 41.4181 71.9944 40.886 71.9193 40.2671C71.9193 40.2671 71.7515 40.1704 71.9655 40.006C72.058 39.4838 70.6529 40.1126 70.7743 40.4704Z" fill="#E0CAEF"/>
<path d="M19.3888 78.0226C19.1749 78.187 19.1749 78.187 19.3888 78.0226C19.036 78.9703 20.6088 78.4382 20.5337 77.8193C20.5337 77.8193 20.366 77.7227 20.58 77.5583C20.6725 77.0361 19.2674 77.6648 19.3888 78.0226Z" fill="#E0CAEF"/>
<path d="M18.1661 87.887C17.9157 87.9677 17.9157 87.9677 18.1661 87.887C17.4066 88.9618 18.9013 89.3102 19.1599 88.3968C19.1599 88.3968 19.079 88.1462 19.3295 88.0654C19.6688 87.4027 18.255 87.305 18.1661 87.887Z" fill="#E0CAEF"/>
<path d="M69.8303 27.2228C69.6163 27.3872 69.6163 27.3872 69.8303 27.2228C69.4775 28.1705 71.0503 27.6384 70.9752 27.0195C70.9752 27.0195 70.8075 26.9229 71.0214 26.7585C71.114 26.2363 69.7089 26.865 69.8303 27.2228Z" fill="#E0CAEF"/>
<path d="M29.4143 87.5596C28.6629 87.8017 28.986 88.8044 29.7374 88.5623C30.4887 88.3201 30.1656 87.3175 29.4143 87.5596Z" fill="#E0CAEF"/>
<path d="M55.6583 40.8989C54.7197 41.2013 55.1233 42.4538 56.0619 42.1514C57.0005 41.8489 56.5969 40.5964 55.6583 40.8989Z" fill="#E0CAEF"/>
<path d="M68.9303 79.9422C68.1789 80.1843 68.502 81.187 69.2534 80.9448C70.0048 80.7027 69.6817 79.7001 68.9303 79.9422Z" fill="#E0CAEF"/>
<path d="M29.8592 70.8085C29.2174 71.3018 29.8881 71.6885 30.5299 71.1952C31.1718 70.702 30.5011 70.3153 29.8592 70.8085Z" fill="#E0CAEF"/>
</svg>
